<svg fill="#1479f6" width="800px" height="800px" viewBox="-20.48 -20.48 552.96 552.96" id="_x30_1" version="1.1"
     xml:space="preserve" xmlns="http://www.w3.org/2000/svg" xmlns:xlink="http://www.w3.org/1999/xlink"
     stroke="#1479f6">

<g id="SVGRepo_bgCarrier" stroke-width="0" transform="translate(35.84,35.84), scale(0.86)">

<rect x="-20.48" y="-20.48" width="552.96" height="552.96" rx="276.48" fill="#ffffff"/>

</g>

    <g id="SVGRepo_tracerCarrier" stroke-linecap="round" stroke-linejoin="round" stroke="#CCCCCC" stroke-width="1.024"/>

    <g id="SVGRepo_iconCarrier">

<path d="M256,0C114.615,0,0,114.615,0,256s114.615,256,256,256s256-114.615,256-256S397.385,0,256,0z M256,90 c37.02,0,67.031,35.468,67.031,79.219S293.02,248.438,256,248.438s-67.031-35.468-67.031-79.219S218.98,90,256,90z M369.46,402 H142.54c-11.378,0-20.602-9.224-20.602-20.602C121.938,328.159,181.959,285,256,285s134.062,43.159,134.062,96.398 C390.062,392.776,380.839,402,369.46,402z"/>

</g>

</svg>